<?xml version="1.0" encoding="utf-8"?>
<!-- Generator: Adobe Illustrator 19.2.1, SVG Export Plug-In . SVG Version: 6.00 Build 0)  -->
<svg version="1.1" id="Layer_1" xmlns="http://www.w3.org/2000/svg" xmlns:xlink="http://www.w3.org/1999/xlink" x="0px" y="0px"
	 width="582.4px" height="124.1px" viewBox="0 0 582.4 124.1" style="enable-background:new 0 0 582.4 124.1;" xml:space="preserve"
	>
<style type="text/css">
	.st0{fill:#19305A;}
	.st1{fill:#85479B;}
	.st2{fill:url(#_Compound_Path_4_1_);}
	.st3{fill:url(#SVGID_1_);}
	.st4{fill:none;}
	.st5{fill:url(#_Path_10_1_);}
	.st6{fill:url(#_Path_9_1_);}
</style>
<g>
	<path class="st0" d="M582,51.9c0,2.4-1.9,4.4-4.3,4.4c-2.4,0-4.3-1.9-4.3-4.4c0-2.4,1.9-4.3,4.3-4.3S582,49.6,582,51.9z M574,51.9
		c0,2.1,1.5,3.8,3.7,3.8c2.1,0,3.6-1.7,3.6-3.8c0-2.1-1.5-3.9-3.6-3.9C575.6,48,574,49.8,574,51.9z M577,54.2h-1v-4.3
		c0.4-0.1,0.9-0.1,1.6-0.1c0.8,0,1.2,0.1,1.5,0.3c0.2,0.2,0.4,0.5,0.4,0.9c0,0.5-0.4,0.8-0.9,1v0.1c0.4,0.2,0.6,0.5,0.8,1
		c0.1,0.7,0.2,0.9,0.3,1.1h-1.1c-0.1-0.2-0.2-0.6-0.3-1c-0.1-0.5-0.3-0.7-0.9-0.7h-0.5v1.7H577z M577,51.8h0.5c0.5,0,1-0.2,1-0.6
		s-0.3-0.7-0.9-0.7c-0.3,0-0.4,0-0.5,0.1L577,51.8L577,51.8z"/>
</g>
<g id="XMLID_1_">
	<g id="XMLID_2_">
		<g id="XMLID_3_">
			<path id="XMLID_17_" class="st0" d="M245,47.5c-1.7,0-3.3,1.1-3.8,2.7l-7.7,23.9l-6.9-23.8c-0.4-1.6-2-2.7-3.6-2.7
				c-1.7,0-3.1,1.1-3.6,2.7l-6.8,23.9l-7.7-23.9c-0.5-1.6-2-2.7-3.8-2.7c-2.2,0-4,1.8-4,4c0,1.8,10.4,33,11.7,36.9
				c0.5,1.6,2,2.7,3.8,2.7c1.7,0,3.3-1.1,3.8-2.7l6.7-23.4l6.7,23.4c0.4,1.7,2,2.7,3.7,2.7s3.3-1.1,3.8-2.7
				c1.3-3.9,11.7-35.1,11.7-36.9C248.9,49.2,247.1,47.5,245,47.5"/>
			<path id="XMLID_16_" class="st0" d="M375.6,64.2l10.1-9.9c0.8-0.8,1.2-1.7,1.2-2.8c0-2.2-1.8-4-4-4c-1,0-2,0.4-2.7,1.1
				l-18.5,18.1v-15c0-2.3-1.9-4.3-4.2-4.3c-2.4,0-4.3,1.9-4.3,4.3v35c0,2.4,1.9,4.3,4.3,4.3s4.2-2,4.2-4.3v-9c2.7-2.7,5.4-5.3,8.1-8
				l12,19.3c0.7,1.1,2,1.9,3.4,1.9c2.2,0,3.9-1.8,3.9-4c0-0.7-0.2-1.4-0.6-2L375.6,64.2z"/>
			<path id="XMLID_15_" class="st0" d="M444.8,47.5c-1.7,0-3.3,1.1-3.8,2.7l-7.7,23.9l-6.8-23.8c-0.4-1.6-2-2.7-3.6-2.7
				c-1.7,0-3.1,1.1-3.6,2.7l-6.8,23.9l-7.7-23.9c-0.5-1.6-2-2.7-3.8-2.7c-2.2,0-4,1.8-4,4c0,1.8,10.4,33,11.7,36.9
				c0.5,1.6,2,2.7,3.8,2.7c1.7,0,3.3-1.1,3.8-2.7l6.7-23.4l6.7,23.4c0.4,1.7,2,2.7,3.7,2.7s3.3-1.1,3.8-2.7
				c1.3-3.9,11.7-35.1,11.7-36.9C448.8,49.2,447,47.5,444.8,47.5"/>
			<path id="XMLID_14_" class="st0" d="M525.7,47.5c-1.5,0-2.9,0.9-3.6,2.3l-11.9,28.5l-11.9-28.5c-0.6-1.5-2.1-2.3-3.6-2.3
				c-2.1,0-3.9,1.9-3.9,4c0,0.5,0.1,1.1,0.3,1.6l15.5,35.7c0.6,1.5,2,2.3,3.6,2.3c1.5,0,3-0.9,3.6-2.3l15.4-35.7
				c0.3-0.5,0.4-1.1,0.4-1.7C529.6,49.2,527.8,47.5,525.7,47.5"/>
			<path id="XMLID_13_" class="st0" d="M567.7,82.7h-19.9v-9.4h10.5c2.2,0,4-1.7,4-4c0-2.2-1.8-4-4-4h-10.5v-9.1h19c2.2,0,4-1.8,4-4
				s-1.9-4-4-4h-23.2c-2.4,0-4.3,1.9-4.3,4.2v34c0,2.4,1.9,4.3,4.3,4.3h24.1c2.2,0,4-1.7,4-4C571.7,84.4,569.9,82.7,567.7,82.7"/>
			<path id="XMLID_10_" class="st0" d="M276.4,47.3c-12.3,0-21.8,9.8-21.8,22c0,12.3,9.6,22.1,21.8,22.1c12.3,0,21.8-9.8,21.8-22.1
				C298.1,57.1,288.6,47.3,276.4,47.3 M276.4,83.6c-8,0-13.3-6.4-13.3-14.2c0-7.9,5.4-14.2,13.3-14.2c8,0,13.3,6.3,13.3,14.2
				C289.6,77.2,284.3,83.6,276.4,83.6"/>
			<path id="XMLID_7_" class="st0" d="M343,60.8c0-9.3-7.1-12.8-15.5-12.8h-15.8c-2.4,0-4.2,1.9-4.2,4.2v34.6c0,2.4,1.8,4.2,4.2,4.2
				c2.3,0,4.3-1.9,4.3-4.2V73.3h11.7c0.1,0.3,7,14.1,7.6,15.4c0.7,1.4,2.1,2.3,3.6,2.3c2.3,0,4.1-1.9,4.1-4.1c0-2-5.7-12.6-7-15.1
				C340.7,69.9,343,65.8,343,60.8 M328.7,66.2h-12.8V55.9h12.8c3.2,0,5.8,1.8,5.8,5.2C334.5,64.4,331.8,66.2,328.7,66.2"/>
			<path id="XMLID_4_" class="st0" d="M450.5,85.4c-0.2,0.5-0.3,1.1-0.3,1.7c0,2.2,1.7,4,3.9,4c0.9,0,1.8-0.3,2.4-1
				c0.4-0.3,0.8-0.8,1.1-1.3c0.2-0.5,5.5-11,19.9-12.6l5.6,12.5c0.6,1.4,2,2.3,3.6,2.3c2.2,0,4-1.9,4-4c0-0.5-0.1-1.1-0.4-1.6
				L474,49.8c-0.6-1.3-2-2.3-3.5-2.3s-3,0.8-3.7,2.3L450.5,85.4z M474.5,69.6c-3.7,0.6-7,1.7-9.7,3.1l5.6-12.2L474.5,69.6z"/>
		</g>
	</g>
</g>
<g>
	<path class="st1" d="M355.3,100.4l6.4,22.4h-5l-1.1-4.6h-6.3l-1.1,4.6h-4.5l6.7-22.4C350.4,100.4,355.3,100.4,355.3,100.4z
		 M354.7,114.4l-2.3-9.1l-2.2,9.1H354.7z"/>
	<path class="st1" d="M369.2,100.4l5.7,13.9v-13.9h3.8v22.4h-4.4l-6.8-16.2v16.2h-3.8v-22.4C363.7,100.4,369.2,100.4,369.2,100.4z"
		/>
	<path class="st1" d="M396.7,100.4v22.4h-4.9v-22.4C391.8,100.4,396.7,100.4,396.7,100.4z"/>
	<path class="st1" d="M414,100.4v3.9h-8.4v5.8h6.5v3.9h-6.5v8.8h-4.9v-22.4C400.7,100.4,414,100.4,414,100.4z"/>
	<path class="st1" d="M425.8,106.8c-0.1-0.2-0.2-0.5-0.3-0.8c-0.1-0.3-0.3-0.6-0.5-0.9s-0.5-0.6-0.9-0.8s-0.9-0.3-1.4-0.3
		c-0.4,0-0.8,0.1-1.1,0.2c-0.3,0.1-0.5,0.3-0.7,0.5s-0.3,0.4-0.4,0.7c-0.1,0.2-0.1,0.5-0.1,0.7c0,0.4,0.1,0.7,0.3,1
		c0.2,0.3,0.4,0.5,0.8,0.7c0.3,0.2,0.7,0.4,1.2,0.6s1,0.4,1.6,0.6s1.3,0.5,2,0.9c0.7,0.3,1.4,0.7,2,1.3c0.6,0.5,1.1,1.2,1.5,1.9
		c0.4,0.8,0.6,1.7,0.6,2.9c0,1-0.2,1.9-0.5,2.7c-0.3,0.9-0.8,1.6-1.5,2.3s-1.5,1.2-2.5,1.6s-2.2,0.6-3.5,0.6c-0.4,0-0.9,0-1.3-0.1
		c-0.5-0.1-1-0.2-1.5-0.3c-0.5-0.2-1-0.4-1.5-0.7s-1-0.7-1.4-1.2c-0.6-0.7-1.1-1.4-1.3-2.1c-0.3-0.7-0.5-1.2-0.6-1.7l4.3-1.2
		c0.1,0.2,0.2,0.6,0.3,0.9c0.1,0.4,0.3,0.8,0.6,1.1c0.3,0.4,0.6,0.7,1,0.9c0.4,0.3,1,0.4,1.7,0.4c0.9,0,1.5-0.2,2.1-0.7
		c0.5-0.4,0.8-1,0.8-1.8c0-0.4-0.1-0.7-0.3-1c-0.2-0.3-0.4-0.5-0.7-0.8c-0.3-0.2-0.6-0.4-1-0.6s-0.8-0.3-1.2-0.5
		c-0.8-0.3-1.5-0.6-2.3-0.9s-1.5-0.8-2.2-1.3s-1.2-1.2-1.6-1.9c-0.4-0.8-0.6-1.7-0.6-2.9c0-0.9,0.1-1.7,0.4-2.5s0.7-1.5,1.3-2.2
		c0.6-0.6,1.3-1.2,2.2-1.5c0.9-0.4,2-0.6,3.2-0.6c1.4,0,2.5,0.2,3.4,0.6s1.6,0.9,2.1,1.4c0.5,0.6,0.9,1.1,1.2,1.7
		c0.2,0.6,0.4,1.1,0.5,1.4L425.8,106.8z"/>
	<path class="st1" d="M457.7,114.9c-0.1,1.1-0.3,2.2-0.7,3.2c-0.4,1-0.9,1.9-1.5,2.6c-0.7,0.7-1.4,1.3-2.4,1.7
		c-0.9,0.4-2,0.6-3.2,0.6c-1.7,0-3.1-0.4-4.2-1.1c-1.1-0.7-2-1.6-2.6-2.8c-0.6-1.1-1.1-2.4-1.3-3.7c-0.2-1.4-0.4-2.7-0.4-3.9
		c0-0.7,0-1.4,0.1-2.3c0.1-0.8,0.2-1.7,0.4-2.5c0.2-0.9,0.5-1.7,0.9-2.5s0.9-1.5,1.5-2.2c0.6-0.6,1.4-1.1,2.3-1.5s2-0.6,3.2-0.6
		c0.9,0,1.6,0.1,2.2,0.3s1.2,0.4,1.7,0.7s0.9,0.6,1.3,1c0.3,0.4,0.6,0.7,0.9,1.1c0.3,0.5,0.6,1,0.8,1.5c0.2,0.5,0.3,1,0.5,1.5
		c0.1,0.5,0.2,1,0.2,1.4s0.1,0.8,0.1,1.2l-4.5,0.3c0-0.4-0.1-1-0.2-1.5c-0.1-0.6-0.2-1.1-0.4-1.6c-0.2-0.5-0.5-1-0.9-1.3
		c-0.4-0.4-1-0.5-1.7-0.5s-1.3,0.2-1.7,0.6c-0.4,0.4-0.8,1-1,1.7s-0.4,1.5-0.5,2.5s-0.1,2-0.1,3.2c0,0.9,0,1.8,0.1,2.7
		s0.2,1.6,0.5,2.3c0.2,0.7,0.6,1.2,1,1.6s1,0.6,1.8,0.6c0.7,0,1.2-0.2,1.6-0.5c0.4-0.4,0.7-0.8,0.9-1.3c0.2-0.5,0.4-1,0.5-1.5
		s0.2-0.9,0.2-1.2L457.7,114.9z"/>
	<path class="st1" d="M468,100.2c1.2,0,2.2,0.2,3.1,0.5c0.9,0.4,1.6,0.8,2.2,1.4s1.1,1.3,1.5,2.1s0.7,1.6,0.9,2.5
		c0.2,0.9,0.4,1.7,0.4,2.6c0.1,0.9,0.1,1.7,0.1,2.5c0,0.7,0,1.4-0.1,2.3c-0.1,0.8-0.2,1.7-0.4,2.5c-0.2,0.9-0.5,1.7-0.8,2.5
		c-0.4,0.8-0.9,1.5-1.4,2.2c-0.6,0.6-1.3,1.1-2.2,1.5c-0.9,0.4-1.9,0.6-3.2,0.6c-1.8,0-3.2-0.4-4.3-1.2c-1.1-0.8-1.9-1.7-2.5-2.9
		s-0.9-2.4-1.1-3.8c-0.2-1.3-0.3-2.6-0.3-3.7c0-0.7,0-1.5,0.1-2.4s0.2-1.7,0.4-2.6c0.2-0.9,0.5-1.7,0.8-2.5c0.4-0.8,0.9-1.5,1.5-2.1
		s1.3-1.1,2.2-1.5C465.8,100.2,466.8,100.2,468,100.2z M468,104.2c-0.6,0-1.1,0.2-1.5,0.5s-0.7,0.8-0.9,1.5
		c-0.2,0.6-0.4,1.4-0.4,2.4c-0.1,0.9-0.1,2-0.1,3.2s0,2.3,0.1,3.2s0.2,1.7,0.4,2.4c0.2,0.6,0.5,1.1,0.9,1.5c0.4,0.3,0.9,0.5,1.5,0.5
		s1.1-0.2,1.5-0.5s0.7-0.8,0.9-1.5c0.2-0.7,0.4-1.4,0.4-2.4c0.1-0.9,0.1-2,0.1-3.2s0-2.2-0.1-3.2c-0.1-0.9-0.2-1.7-0.4-2.4
		c-0.2-0.6-0.5-1.1-0.9-1.5C469.1,104.2,468.6,104.2,468,104.2z"/>
	<path class="st1" d="M486.7,100.4l3.2,13.8l3.6-13.8h7v22.4h-4.6V104l-4.6,18.8h-3.6l-4.2-18.8v18.8h-4v-22.4
		C479.5,100.4,486.7,100.4,486.7,100.4z"/>
	<path class="st1" d="M510.9,100.4c0.6,0,1.2,0,1.8,0s1.2,0.1,1.7,0.2c0.6,0.1,1.1,0.3,1.6,0.5s1,0.6,1.4,1s0.7,0.8,0.9,1.3
		s0.4,0.9,0.6,1.4c0.1,0.5,0.2,0.9,0.3,1.4c0.1,0.4,0.1,0.9,0.1,1.2c0,1.1-0.2,2.2-0.5,3.2s-1,1.9-1.8,2.6c-0.4,0.3-0.9,0.6-1.4,0.8
		s-1.1,0.3-1.6,0.4s-1.1,0.1-1.5,0.2c-0.5,0-0.9,0-1.2,0h-2v8.3h-4.9v-22.4L510.9,100.4L510.9,100.4z M509.3,104.1v6.7h1.5
		c0.4,0,0.8,0,1.2-0.1c0.4-0.1,0.7-0.2,1-0.5c0.3-0.2,0.5-0.6,0.7-1s0.3-1,0.3-1.8s-0.1-1.5-0.3-1.9s-0.5-0.8-0.8-1s-0.7-0.3-1-0.4
		c-0.4,0-0.7-0.1-0.9-0.1h-1.7V104.1z"/>
	<path class="st1" d="M529.9,100.4l6.4,22.4h-5l-1.1-4.6h-6.3l-1.1,4.6h-4.5l6.7-22.4C525,100.4,529.9,100.4,529.9,100.4z
		 M529.3,114.4l-2.3-9.1l-2.2,9.1H529.3z"/>
	<path class="st1" d="M543.9,100.4l5.7,13.9v-13.9h3.8v22.4H549l-6.8-16.2v16.2h-3.8v-22.4C538.4,100.4,543.9,100.4,543.9,100.4z"/>
	<path class="st1" d="M560.6,100.4l3.2,8.2l3.4-8.2h4.8l-6.2,12.9v9.5h-4.9v-9.5l-5.6-12.9C555.3,100.4,560.6,100.4,560.6,100.4z"/>
</g>
<g>
	<g>
		<g>
			
				<linearGradient id="_Compound_Path_4_1_" gradientUnits="userSpaceOnUse" x1="0.8602" y1="19687.8965" x2="181.438" y2="19687.8965" gradientTransform="matrix(1 0 0 1 0 -19626)">
				<stop  offset="0" style="stop-color:#8CC63F"/>
				<stop  offset="7.000000e-02" style="stop-color:#8CC63F"/>
				<stop  offset="0.33" style="stop-color:#1E488A"/>
				<stop  offset="0.41" style="stop-color:#1E488A"/>
				<stop  offset="0.5" style="stop-color:#1E488A"/>
				<stop  offset="0.58" style="stop-color:#1E488A"/>
				<stop  offset="0.66" style="stop-color:#1E488A"/>
				<stop  offset="0.75" style="stop-color:#1E488A"/>
				<stop  offset="0.9135" style="stop-color:#883F8E"/>
				<stop  offset="0.9682" style="stop-color:#85479B"/>
			</linearGradient>
			<path id="_Compound_Path_4_2_" class="st2" d="M36.3,92.3l-2.4,5.5c-2.1,4.5-7.5,6.5-12,4.4c-4.4-2.1-6.4-7.2-4.5-11.7l2.8-6.3
				c2-4.5,7.3-6.6,11.9-4.6C36.7,81.6,38.3,87.8,36.3,92.3z M24.1,67.4l-0.8-2.7c-1-4.9-5.8-8-10.7-7s-8,5.8-7,10.7
				c0.1,0.5,0.2,0.9,0.4,1.3l0.8,2.7c1,4.9,5.8,8,10.7,7s8-5.8,7-10.7C24.4,68.3,24.2,67.9,24.1,67.4z M16.1,49.9
				c0.9-4.2-1.8-8.2-6-9.1s-8.2,1.8-9.1,6s1.8,8.2,6,9.1l0,0C11.2,56.8,15.3,54.2,16.1,49.9L16.1,49.9z M51.9,30.5
				c-4.8-2.1-10.5,0-12.5,4.8L28.8,63.3l-0.3,0.9c-2,4.6,0,9.9,4.6,12c3.7,1.6,7.9,0.7,10.5-2.4l0,0c0.6-0.7,1.1-1.5,1.5-2.4
				l7.2-17.8c0.6-1.3,1.9-3.7,4.3-4.4c3.1-0.9,5.4,1.5,6.1,3.8L61.6,50l-4.8-14.1l-0.1-0.4C55.9,33.2,54.2,31.5,51.9,30.5
				 M175.6,1.9c-8.7-4.1-12.3,4.4-12.3,4.4l-33.7,79.9c0,0-14.3-43.8-14.9-45.3l-0.1-0.2l0.3,0.7c-0.7-2.3-3-4.7-6.1-3.8
				c-2.4,0.7-3.7,3.1-4.3,4.4l-5.1,12.4v0.1l20.8,63c1.3,3.3,4.6,5.5,8.2,5.6c6.4,0.3,9.1-5.6,9.1-5.6l43.2-104.2
				C180.7,13.2,184.2,6,175.6,1.9z M114.3,40l-5-15.3c-0.7-2.8-2.7-5.1-5.3-6.4c-4.8-2.1-10.3,0-12.4,4.8L70.2,74.3l-7.3-21.4
				l-0.1-0.2c-0.8-2.2-3-4.5-6-3.6c-2.4,0.7-3.7,3.1-4.3,4.4l-5.4,12.7l12.8,38.8c1.5,5,6.8,7.8,11.8,6.2c2.6-0.8,4.7-2.7,5.8-5.1
				l21.7-51.7l5.1-12.4c0.6-1.3,1.9-3.7,4.3-4.4c3.1-0.9,5.4,1.5,6.1,3.8L114.3,40z"/>
			
				<linearGradient id="SVGID_1_" gradientUnits="userSpaceOnUse" x1="0.4833" y1="-9805.4912" x2="182.0167" y2="-9805.4912" gradientTransform="matrix(1 0 0 -1 0 -9743.5)">
				<stop  offset="0" style="stop-color:#8CC63F"/>
				<stop  offset="7.000000e-02" style="stop-color:#8CC63F"/>
				<stop  offset="0.33" style="stop-color:#1E488A"/>
				<stop  offset="0.41" style="stop-color:#1E488A"/>
				<stop  offset="0.5" style="stop-color:#1E488A"/>
				<stop  offset="0.58" style="stop-color:#1E488A"/>
				<stop  offset="0.66" style="stop-color:#1E488A"/>
				<stop  offset="0.75" style="stop-color:#1E488A"/>
				<stop  offset="0.9135" style="stop-color:#883F8E"/>
				<stop  offset="0.9682" style="stop-color:#85479B"/>
			</linearGradient>
			<path class="st3" d="M128.7,123.6c-0.2,0-0.3,0-0.5,0c-3.8,0-7.2-2.4-8.6-5.9L99.2,55.9L78,106.4c-1.2,2.6-3.4,4.6-6.1,5.4
				c-2.5,0.8-5.2,0.5-7.6-0.7c-2.3-1.2-4.1-3.3-4.8-5.8L47.2,67.9l-1.5,3.8c-0.4,0.9-0.9,1.8-1.6,2.5c-2.8,3.2-7.2,4.2-11.1,2.5
				c-2.3-1-4.1-2.9-5-5.3s-0.9-5,0.2-7.3l0.3-0.8l10.6-28.1c1-2.4,2.8-4.2,5.3-5.2s5.4-1,7.9,0.1l0,0c2.3,1,4.2,2.9,5.1,5.3l0.1,0.4
				l5.7,16.7c0,0.1,0,0.1,0.1,0.2l0.1,0.2l6.9,20.1l20.9-50c2.2-5,8.1-7.3,13.1-5c2.8,1.3,4.8,3.7,5.6,6.7l5.4,16.4l0,0
				c0,0.1,0.1,0.2,0.1,0.3l0,0c1.7,4.9,12,36.6,14.3,43.5l33.2-78.7c0.1-0.2,1.7-3.9,5.4-5.4c2.3-0.9,4.8-0.6,7.5,0.7
				c2.9,1.4,4.8,3.3,5.7,5.6c1.2,3.3-0.2,6.3-0.3,6.5l-43.4,104.2C137.7,117.8,135,123.6,128.7,123.6z M99.8,54.6l20.7,62.8
				c1.3,3.1,4.3,5.2,7.7,5.2c6,0.3,8.6-5.2,8.6-5.3l43.4-104.3c0.1-0.3,3.2-7-4.9-10.8l0,0c-2.5-1.2-4.8-1.4-6.8-0.6
				c-3.3,1.3-4.8,4.8-4.8,4.8l-34.3,81.1l-0.4-1.3c-0.1-0.4-12.9-39.5-14.7-44.7l-0.2-0.6c-0.8-1.7-2.6-3.7-5.3-2.9
				c-1.6,0.5-2.9,1.8-4,4.1l0,0L99.8,54.6z M47.7,66.4L60.4,105c0.7,2.3,2.3,4.2,4.4,5.3c2.1,1.1,4.5,1.3,6.8,0.6
				c2.5-0.8,4.5-2.5,5.5-4.9l21.7-51.7l5.1-12.3c0,0,0,0,0-0.1c1.1-2.5,2.7-4.1,4.6-4.7c1.8-0.5,3.4-0.1,4.6,0.9l-4.3-13.3
				c-0.7-2.7-2.5-4.9-5.1-6.1c-4.5-2-9.8,0-11.8,4.5L70,75.8l-7.7-22.5l0,0l-0.1-0.4c-0.7-1.8-2.6-3.9-5.4-3.1c-1.6,0.5-3,1.9-4,4.1
				L47.7,66.4z M48.1,30.2c-1.2,0-2.3,0.2-3.4,0.7c-2.2,0.9-3.9,2.5-4.7,4.6l-11,29c-0.9,2.1-1,4.4-0.2,6.6c0.8,2.1,2.4,3.8,4.5,4.7
				c3.5,1.5,7.5,0.6,10-2.2c0.6-0.7,1.1-1.4,1.4-2.2l2-4.9v-0.1L52,53.4c1.1-2.5,2.7-4.1,4.6-4.7c1.8-0.5,3.4,0,4.5,0.9l-4.8-14
				c-0.9-2.1-2.5-3.8-4.6-4.7l0,0C50.6,30.3,49.3,30.2,48.1,30.2z M25.6,103.6c-1.4,0-2.7-0.3-4-0.9c-4.7-2.2-6.7-7.6-4.8-12.3
				l2.8-6.4c2.1-4.8,7.8-7,12.6-4.8c2.1,0.9,3.7,2.7,4.6,5c1,2.7,1,5.9-0.1,8.4L34.3,98C32.7,101.6,29.2,103.6,25.6,103.6z
				 M28.4,79.3c-3.3,0-6.4,1.9-7.8,5.1l-2.8,6.3c-1.8,4.2,0.1,9.1,4.3,11c4.3,2,9.4,0.1,11.4-4.1l2.4-5.5c1-2.3,1.1-5.2,0.1-7.7
				c-0.8-2.1-2.3-3.7-4.1-4.5C30.7,79.6,29.6,79.3,28.4,79.3z M15.6,80.2c-4.4,0-8.4-3.1-9.3-7.6l-0.8-2.6c-0.2-0.4-0.3-0.9-0.4-1.4
				C4,63.6,7.3,58.5,12.5,57.3c5.2-1.1,10.2,2.2,11.3,7.4l0.8,2.6c0.2,0.5,0.3,0.9,0.4,1.4c1.1,5.1-2.2,10.2-7.4,11.3
				C16.9,80.2,16.3,80.2,15.6,80.2z M14.4,58.2c-0.6,0-1.2,0.1-1.8,0.2C8,59.3,5,63.8,6,68.4c0.1,0.4,0.2,0.9,0.4,1.3l0.8,2.7
				c1,4.6,5.5,7.6,10.1,6.6s7.6-5.5,6.6-10.1c-0.1-0.4-0.2-0.9-0.4-1.3l0,0l-0.8-2.7C22,60.9,18.4,58.2,14.4,58.2z M8.6,56.7
				c-0.5,0-1.1-0.1-1.6-0.2c-2.2-0.4-4-1.7-5.2-3.5s-1.6-4-1.2-6.2c0.9-4.4,5.3-7.3,9.7-6.4s7.3,5.3,6.4,9.7l0,0
				C15.8,53.9,12.4,56.7,8.6,56.7z M8.6,41.2c-3.4,0-6.4,2.4-7.1,5.8c-0.4,1.9,0,3.8,1,5.4c1.1,1.6,2.7,2.7,4.6,3.1
				c3.9,0.8,7.7-1.7,8.5-5.6c0.8-3.9-1.7-7.7-5.6-8.5C9.5,41.2,9,41.2,8.6,41.2z"/>
		</g>
	</g>
	<g id="_Group_6_2_">
		<g id="_Group_7_2_">
			<g id="_Group_8_2_">
				<g id="_Group_9_2_">
					<line id="_Path_6_2_" class="st4" x1="36.3" y1="67.1" x2="37" y2="69.3"/>
					<line id="_Path_7_2_" class="st4" x1="37.8" y1="67.8" x2="35.5" y2="68.6"/>
				</g>
			</g>
		</g>
	</g>
	
		<linearGradient id="_Path_10_1_" gradientUnits="userSpaceOnUse" x1="101.1559" y1="19697.5352" x2="82.4331" y2="19687.1484" gradientTransform="matrix(1 0 0 1 0 -19626)">
		<stop  offset="0" style="stop-color:#19305A;stop-opacity:0"/>
		<stop  offset="2.000000e-02" style="stop-color:#19305A;stop-opacity:4.000000e-02"/>
		<stop  offset="0.19" style="stop-color:#19305A;stop-opacity:0.31"/>
		<stop  offset="0.36" style="stop-color:#19305A;stop-opacity:0.53"/>
		<stop  offset="0.53" style="stop-color:#19305A;stop-opacity:0.71"/>
		<stop  offset="0.69" style="stop-color:#19305A;stop-opacity:0.83"/>
		<stop  offset="0.85" style="stop-color:#19305A;stop-opacity:0.9"/>
		<stop  offset="1" style="stop-color:#19305A;stop-opacity:0.93"/>
	</linearGradient>
	<path id="_Path_10_2_" class="st5" d="M129.5,87.6L129.5,87.6L127,80l-12.2-37.1c-0.7-2.3-3-4.7-6.1-3.8c-2.4,0.7-3.7,3.1-4.3,4.4
		l-5.2,12.4l20.4,61.8c1.3,3.3,4.5,5.7,8.5,5.8c6.1,0.3,9-4.8,9-4.8l1.6-3.3L129.5,87.6z"/>
	
		<linearGradient id="_Path_9_1_" gradientUnits="userSpaceOnUse" x1="52.6116" y1="19701.7578" x2="41.2347" y2="19695.4492" gradientTransform="matrix(1 0 0 1 0 -19626)">
		<stop  offset="0" style="stop-color:#19305A;stop-opacity:0"/>
		<stop  offset="2.000000e-02" style="stop-color:#19305A;stop-opacity:4.000000e-02"/>
		<stop  offset="0.19" style="stop-color:#19305A;stop-opacity:0.31"/>
		<stop  offset="0.36" style="stop-color:#19305A;stop-opacity:0.53"/>
		<stop  offset="0.53" style="stop-color:#19305A;stop-opacity:0.71"/>
		<stop  offset="0.69" style="stop-color:#19305A;stop-opacity:0.83"/>
		<stop  offset="0.85" style="stop-color:#19305A;stop-opacity:0.9"/>
		<stop  offset="1" style="stop-color:#19305A;stop-opacity:0.93"/>
	</linearGradient>
	<path id="_Path_9_2_" class="st6" d="M70.1,75.8l-7.3-21.4l-0.1-0.2c-0.8-2.2-3-4.5-6-3.6c-2.4,0.7-3.7,3.1-4.3,4.4l-5.2,12.8
		L59.7,106c1.6,4.3,6.3,7.4,11.9,6c2.7-0.8,4.6-2.4,5.8-4.3l2-4.6L70.1,75.8z"/>
</g>
</svg>
